<?xml version="1.0" encoding="utf-8"?>
<!-- Generator: Adobe Illustrator 25.2.1, SVG Export Plug-In . SVG Version: 6.00 Build 0)  -->
<svg version="1.1" id="Layer_1" xmlns="http://www.w3.org/2000/svg" xmlns:xlink="http://www.w3.org/1999/xlink" x="0px" y="0px"
	 viewBox="0 0 952 226" style="enable-background:new 0 0 952 226;" xml:space="preserve">
<style type="text/css">
	.st0{fill:#F4F5F9;}
	.st1{fill:#2FC7CB;}
	.st2{fill:#25CACE;}
</style>
<rect x="-1.8" y="-0.7" class="st0" width="956.71" height="227.64"/>
<g>
	<g>
		<path class="st1" d="M339.1,77.65c-31.62-31.62-83.08-31.62-114.7,0l-57.02,57.02c0,0,0,0,0,0l-12.27,12.27l-8.58,8.58
			c-11.03,11.03-28.94,11.08-39.98,0.04c-10.99-10.99-10.99-28.94,0.04-39.98c10.99-10.99,28.9-11.03,39.93,0l5.85,5.85l37.39-37.39
			l-5.85-5.85c-31.62-31.62-83.08-31.62-114.7,0c-31.62,31.62-31.62,83.08,0,114.7c31.62,31.62,83.08,31.62,114.7,0l57.02-57.02
			c0,0,0,0,0,0l12.27-12.27l8.58-8.58c11.03-11.03,28.94-11.08,39.98-0.04c10.99,10.99,10.99,28.94-0.04,39.98
			c-10.99,10.99-28.9,11.03-39.93,0l-5.85-5.85l-37.39,37.39l5.85,5.85c31.62,31.62,83.08,31.62,114.7,0S370.73,109.28,339.1,77.65z
			"/>
	</g>
	<polygon class="st2" points="389.33,222.34 389.33,222.34 389.33,222.34 	"/>
	<g>
		<path class="st2" d="M497.92,70.57c-12.39-10.96-30.36-16.52-53.43-16.52c-13.04,0-25.29,2.62-36.41,7.78
			c-11.22,5.21-20.66,12.73-28.07,22.34l-3.78,4.9l32.36,25.43c-0.8,0.32-1.59,0.66-2.37,1.01c-9.69,4.33-17.46,10.64-23.08,18.76
			c-5.7,8.23-8.59,17.81-8.59,28.48c0,15.98,5.53,29.13,16.43,39.08c10.74,9.81,24.55,14.79,41.04,14.79c9.99,0,18.99-2,26.77-5.94
			c3.6-1.82,6.91-3.92,9.9-6.27v7.78h48.21V119C516.92,98.02,510.53,81.73,497.92,70.57z M445.33,147.95
			c7.97,0,15.73,1.48,23.13,4.39c-0.75,5.8-3.18,10.88-7.38,15.45c-4.99,5.44-11.68,8.08-20.45,8.08c-5.96,0-10.44-1.29-13.3-3.83
			c-2.72-2.41-3.99-5.37-3.99-9.31C423.33,155.43,425.95,147.95,445.33,147.95z M426.35,99.82c5.29-2.61,10.83-3.93,16.48-3.93
			c8.25,0,14.78,1.94,19.42,5.77c3.71,3.06,5.75,6.71,6.3,11.32c-9.13-2.55-19.51-3.84-30.98-3.84c-9.86,0-19.11,1.61-27.55,4.8
			l3.05-3.74C416.54,105.95,421,102.45,426.35,99.82z"/>
		<path class="st2" d="M602.74,53.75c2.51-2.38,5.9-3.54,10.37-3.54c2.92,0,5.48,0.3,7.61,0.88c2.41,0.67,5.27,1.69,8.52,3.06
			l8.67,3.64V8.36l-4.38-1.37c-7.05-2.21-15.41-3.33-24.85-3.33c-17.09,0-31.21,5.19-41.96,15.43
			c-10.84,10.32-16.34,24.56-16.34,42.32v1.51h-25.2v43.51h25.2v110.2h48.77v-110.2h34.61V62.91h-34.6
			C599.29,58.92,600.46,55.92,602.74,53.75z"/>
		<path class="st2" d="M759.3,70.57c-12.39-10.96-30.36-16.52-53.43-16.52c-13.04,0-25.29,2.62-36.41,7.78
			c-11.22,5.21-20.66,12.73-28.06,22.34l-3.78,4.9l32.36,25.42c-0.8,0.32-1.59,0.66-2.37,1.01c-9.69,4.33-17.46,10.64-23.08,18.76
			c-5.7,8.23-8.58,17.81-8.58,28.48c0,15.98,5.53,29.13,16.43,39.09c10.74,9.81,24.55,14.79,41.03,14.79c9.99,0,18.99-2,26.77-5.94
			c3.6-1.82,6.91-3.92,9.9-6.27v7.78h48.21V119C778.3,98.02,771.91,81.73,759.3,70.57z M706.7,147.95c7.97,0,15.73,1.48,23.13,4.39
			c-0.75,5.8-3.18,10.88-7.38,15.46c-5,5.44-11.69,8.08-20.46,8.08c-5.96,0-10.44-1.29-13.3-3.83c-2.72-2.41-3.99-5.37-3.99-9.31
			C684.71,155.43,687.32,147.95,706.7,147.95z M687.73,99.82c5.29-2.61,10.84-3.93,16.49-3.93c8.25,0,14.78,1.94,19.42,5.77
			c3.71,3.06,5.75,6.71,6.3,11.32c-9.13-2.55-19.5-3.84-30.98-3.84c-9.86,0-19.11,1.61-27.55,4.79l3.05-3.74
			C677.91,105.95,682.38,102.45,687.73,99.82z"/>
		<path class="st2" d="M902.45,62.21c-6.04-2.29-12.75-3.45-19.93-3.45c-9.94,0-19.21,2.48-27.53,7.37
			c-3.39,1.99-6.44,4.22-9.14,6.68v-9.9H799.3v153.71h48.77v-76.58c0-10.44,2.62-18.75,8.02-25.42c5.07-6.27,11.82-9.31,20.62-9.31
			c3.36,0,6.54,0.36,9.46,1.07c3.14,0.76,7.14,2.04,11.9,3.8l8.41,3.11V63.74L902.45,62.21z"/>
	</g>
</g>
</svg>
